<svg width="31" height="31" viewBox="0 0 31 31" fill="none" xmlns="http://www.w3.org/2000/svg">
<g clip-path="url(#clip0_35_109)">
<path d="M26.8219 1.44729e-07H4.17737C3.06892 1.44729e-07 2.00588 0.440326 1.2221 1.22411C0.438312 2.0079 -0.00201416 3.07094 -0.00201416 4.17938L-0.00201416 26.8217C-0.00201416 27.9302 0.438312 28.9932 1.2221 29.777C2.00588 30.5608 3.06892 31.0011 4.17737 31.0011H15.3462L15.3649 19.9235H12.4866C12.307 19.9235 12.1348 19.8523 12.0076 19.7256C11.8804 19.5988 11.8086 19.4267 11.808 19.2471L11.7937 15.676C11.7933 15.5866 11.8105 15.498 11.8444 15.4153C11.8783 15.3326 11.9283 15.2574 11.9913 15.194C12.0544 15.1306 12.1293 15.0804 12.2119 15.046C12.2944 15.0117 12.3829 14.9941 12.4723 14.9941H15.3451V11.5483C15.3451 7.54378 17.79 5.3639 21.3623 5.3639H24.2934C24.4734 5.3639 24.646 5.4354 24.7732 5.56266C24.9005 5.68992 24.972 5.86253 24.972 6.0425V9.04836C24.972 9.13747 24.9544 9.22571 24.9203 9.30805C24.8862 9.39038 24.8362 9.46519 24.7732 9.5282C24.7102 9.59121 24.6354 9.6412 24.5531 9.6753C24.4707 9.7094 24.3825 9.72696 24.2934 9.72696H22.4962C20.5539 9.72696 20.1778 10.6497 20.1778 12.0047V14.9919H24.4463C24.5422 14.9918 24.637 15.0121 24.7245 15.0514C24.812 15.0907 24.8902 15.1481 24.9539 15.2198C25.0176 15.2915 25.0654 15.3759 25.0941 15.4674C25.1228 15.5589 25.1318 15.6555 25.1205 15.7508L24.697 19.3219C24.6776 19.4871 24.5982 19.6394 24.4739 19.7499C24.3497 19.8604 24.1891 19.9214 24.0228 19.9213H20.1965L20.1778 30.9989H26.823C27.9314 30.9989 28.9945 30.5586 29.7783 29.7748C30.5621 28.991 31.0024 27.928 31.0024 26.8195V4.17938C31.0024 3.63044 30.8942 3.08688 30.6841 2.57975C30.474 2.07261 30.1661 1.61183 29.7779 1.22372C29.3897 0.835617 28.9288 0.52779 28.4216 0.317821C27.9144 0.107852 27.3708 -0.000144312 26.8219 1.44729e-07Z" fill="white"/>
</g>
<defs>
<clipPath id="clip0_35_109">
<rect width="31" height="31" fill="white"/>
</clipPath>
</defs>
</svg>
