<svg width="33" height="33" viewBox="0 0 33 33" fill="none" xmlns="http://www.w3.org/2000/svg">
<g clip-path="url(#clip0_35_111)">
<path d="M23.564 0H8.981C6.59998 0.00291094 4.31732 0.950056 2.63369 2.63369C0.950056 4.31732 0.00291094 6.59998 0 8.981L0 23.564C0.00264684 25.9451 0.949707 28.2279 2.6334 29.9116C4.31709 31.5953 6.5999 32.5424 8.981 32.545H23.564C25.9452 32.5424 28.2281 31.5953 29.912 29.9117C31.5958 28.228 32.5431 25.9452 32.546 23.564V8.981C32.5431 6.59981 31.5958 4.317 29.912 2.63334C28.2281 0.949674 25.9452 0.00264634 23.564 0ZM29.658 23.564C29.6564 25.1797 29.0139 26.7289 27.8714 27.8714C26.7289 29.0139 25.1797 29.6564 23.564 29.658H8.981C7.36526 29.6564 5.81615 29.0139 4.67365 27.8714C3.53114 26.7289 2.88859 25.1797 2.887 23.564V8.981C2.88885 7.36543 3.53152 5.81658 4.674 4.67429C5.81647 3.53201 7.36543 2.88959 8.981 2.888H23.564C25.1797 2.88959 26.7289 3.53214 27.8714 4.67465C29.0139 5.81715 29.6564 7.36626 29.658 8.982V23.564Z" fill="white"/>
<path d="M16.272 7.88721C14.6134 7.88721 12.992 8.37904 11.613 9.3005C10.2339 10.222 9.15905 11.5317 8.52434 13.064C7.88962 14.5964 7.72355 16.2825 8.04712 17.9092C8.3707 19.536 9.16939 21.0302 10.3422 22.203C11.515 23.3758 13.0092 24.1745 14.636 24.4981C16.2627 24.8216 17.9488 24.6556 19.4812 24.0209C21.0135 23.3861 22.3232 22.3113 23.2447 20.9322C24.1662 19.5531 24.658 17.9318 24.658 16.2732C24.6543 14.0502 23.7696 11.9194 22.1977 10.3475C20.6258 8.77562 18.495 7.89091 16.272 7.88721ZM16.272 21.7712C15.1842 21.7712 14.1208 21.4486 13.2164 20.8443C12.3119 20.2399 11.6069 19.381 11.1907 18.376C10.7744 17.371 10.6655 16.2651 10.8777 15.1982C11.0899 14.1313 11.6137 13.1513 12.3829 12.3821C13.1521 11.6129 14.1321 11.0891 15.199 10.8769C16.2659 10.6647 17.3718 10.7736 18.3767 11.1899C19.3817 11.6062 20.2407 12.3111 20.8451 13.2156C21.4494 14.12 21.772 15.1834 21.772 16.2712C21.772 17.7299 21.1925 19.1288 20.1611 20.1603C19.1296 21.1917 17.7307 21.7712 16.272 21.7712Z" fill="white"/>
<path d="M25.0109 5.43799C24.5215 5.4388 24.0476 5.60922 23.6697 5.92023C23.2919 6.23123 23.0335 6.66359 22.9386 7.14368C22.8437 7.62378 22.9182 8.12192 23.1493 8.55329C23.3804 8.98466 23.7539 9.32258 24.2061 9.50952C24.6584 9.69646 25.1615 9.72085 25.6297 9.57855C26.098 9.43624 26.5024 9.13604 26.7742 8.72905C27.0459 8.32207 27.1682 7.83346 27.1202 7.34644C27.0722 6.85942 26.8569 6.40409 26.5109 6.05799C26.1126 5.66108 25.5732 5.43815 25.0109 5.43799Z" fill="white"/>
</g>
<defs>
<clipPath id="clip0_35_111">
<rect width="32.546" height="32.546" fill="white"/>
</clipPath>
</defs>
</svg>
