<svg width="262" height="218" viewBox="0 0 262 218" fill="none" xmlns="http://www.w3.org/2000/svg">
<g clip-path="url(#clip0_370_2)">
<path d="M240.445 174.667C252.533 174.667 262.334 184.468 262.334 196.556C262.334 208.644 252.533 218.445 240.445 218.445C233.867 218.445 28.1335 218.445 21.5559 218.445C9.46775 218.445 -0.333008 208.644 -0.333008 196.556C-0.333008 184.468 9.46775 174.667 21.5559 174.667C28.1335 174.667 233.867 174.667 240.445 174.667ZM240.445 87.1113C252.533 87.1113 262.334 96.9121 262.334 109C262.334 121.088 252.533 130.889 240.445 130.889C233.867 130.889 28.1335 130.889 21.5559 130.889C9.46775 130.889 -0.333008 121.088 -0.333008 109C-0.333008 96.9121 9.46775 87.1113 21.5559 87.1113C28.1335 87.1113 233.867 87.1113 240.445 87.1113ZM240.445 -0.444336C252.533 -0.444336 262.334 9.35643 262.334 21.4446C262.334 33.5327 252.533 43.3335 240.445 43.3335C233.867 43.3335 28.1335 43.3335 21.5559 43.3335C9.46775 43.3335 -0.333008 33.5327 -0.333008 21.4446C-0.333008 9.35643 9.46775 -0.444336 21.5559 -0.444336C28.1335 -0.444336 233.867 -0.444336 240.445 -0.444336Z" fill="white"/>
</g>
<defs>
<clipPath id="clip0_370_2">
<rect width="262" height="218" fill="white"/>
</clipPath>
</defs>
</svg>
