<svg width="36" height="25" viewBox="0 0 36 25" fill="none" xmlns="http://www.w3.org/2000/svg">
<g clip-path="url(#clip0_35_116)">
<path d="M35.2476 3.91148C35.0443 3.15493 34.6432 2.46442 34.0847 1.90912C33.5261 1.35382 32.8296 0.953209 32.065 0.747426C29.2572 -2.31496e-06 18 0 18 0C18 0 6.74279 -2.31496e-06 3.93504 0.747426C3.17038 0.953209 2.47389 1.35382 1.91533 1.90912C1.35676 2.46442 0.955732 3.15493 0.752403 3.91148C5.20868e-08 6.70268 0 12.525 0 12.525C0 12.525 5.20868e-08 18.3474 0.752403 21.1386C0.957336 21.8889 1.35976 22.5723 1.91876 23.1192C2.47777 23.6662 3.17344 24.0572 3.93504 24.2526C6.74279 25 18 25 18 25C18 25 29.2572 25 32.065 24.2526C32.8265 24.0573 33.5221 23.6664 34.0811 23.1196C34.6401 22.5728 35.0425 21.8896 35.2476 21.1394C36 18.3482 36 12.5259 36 12.5259C36 12.5259 36 6.70268 35.2476 3.91148ZM14.3184 17.8114V7.23866L23.7274 12.525L14.3184 17.8114Z" fill="white"/>
</g>
<defs>
<clipPath id="clip0_35_116">
<rect width="36" height="25" fill="white"/>
</clipPath>
</defs>
</svg>
